<?xml version="1.0" encoding="UTF-8" standalone="no"?>
<svg
   xmlns:dc="http://purl.org/dc/elements/1.1/"
   xmlns:cc="http://creativecommons.org/ns#"
   xmlns:rdf="http://www.w3.org/1999/02/22-rdf-syntax-ns#"
   xmlns:svg="http://www.w3.org/2000/svg"
   xmlns="http://www.w3.org/2000/svg"
   xmlns:xlink="http://www.w3.org/1999/xlink"
   version="1.1"
   width="600"
   height="600"
   id="svg2">
  <metadata
     id="metadata4430">
    <rdf:RDF>
      <cc:Work
         rdf:about="">
        <dc:format>image/svg+xml</dc:format>
        <dc:type
           rdf:resource="http://purl.org/dc/dcmitype/StillImage" />
        <dc:title></dc:title>
      </cc:Work>
    </rdf:RDF>
  </metadata>
  <defs
     id="defs4">
    <linearGradient
       id="linearGradient3963">
      <stop
         id="stop3965"
         style="stop-color:#ffffff;stop-opacity:0"
         offset="0" />
      <stop
         id="stop3967"
         style="stop-color:#ffffff;stop-opacity:0.15102041"
         offset="0.48168489" />
      <stop
         id="stop3969"
         style="stop-color:#ffffff;stop-opacity:0"
         offset="1" />
    </linearGradient>
    <linearGradient
       id="linearGradient3953">
      <stop
         id="stop3955"
         style="stop-color:#ffffff;stop-opacity:0.03673469"
         offset="0" />
      <stop
         id="stop3957"
         style="stop-color:#ffffff;stop-opacity:0.07755102"
         offset="0.53210825" />
      <stop
         id="stop3959"
         style="stop-color:#ffffff;stop-opacity:0"
         offset="1" />
    </linearGradient>
    <linearGradient
       id="linearGradient3925">
      <stop
         id="stop3927"
         style="stop-color:#ffffff;stop-opacity:0"
         offset="0" />
      <stop
         id="stop3933"
         style="stop-color:#ffffff;stop-opacity:0.26530612"
         offset="0.47692397" />
      <stop
         id="stop3929"
         style="stop-color:#ffffff;stop-opacity:0"
         offset="1" />
    </linearGradient>
    <linearGradient
       id="linearGradient3893">
      <stop
         id="stop3895"
         style="stop-color:#ffffff;stop-opacity:0.03673469"
         offset="0" />
      <stop
         id="stop3921"
         style="stop-color:#ffffff;stop-opacity:0.20408162"
         offset="0.49904415" />
      <stop
         id="stop3897"
         style="stop-color:#ffffff;stop-opacity:0"
         offset="1" />
    </linearGradient>
    <linearGradient
       id="linearGradient3795">
      <stop
         id="stop3797"
         style="stop-color:#ffffff;stop-opacity:0.1"
         offset="0" />
      <stop
         id="stop3799"
         style="stop-color:#ffffff;stop-opacity:0"
         offset="1" />
    </linearGradient>
    <linearGradient
       id="linearGradient3781">
      <stop
         id="stop3783"
         style="stop-color:#c8be75;stop-opacity:1"
         offset="0" />
      <stop
         id="stop3809"
         style="stop-color:#f3e68e;stop-opacity:1"
         offset="0.22935505" />
      <stop
         id="stop3789"
         style="stop-color:#f4e78f;stop-opacity:1"
         offset="0.76150304" />
      <stop
         id="stop3785"
         style="stop-color:#bdb36e;stop-opacity:1"
         offset="1" />
    </linearGradient>
    <radialGradient
       cx="370.4043"
       cy="477.94406"
       r="362.71976"
       fx="370.4043"
       fy="477.94406"
       id="radialGradient3801"
       xlink:href="#linearGradient3795"
       gradientUnits="userSpaceOnUse"
       gradientTransform="matrix(1,0,0,0.92473938,0,35.970365)" />
    <linearGradient
       x1="179.50415"
       y1="381.55859"
       x2="354.60654"
       y2="164.66835"
       id="linearGradient3931"
       xlink:href="#linearGradient3925"
       gradientUnits="userSpaceOnUse" />
    <linearGradient
       x1="173.08939"
       y1="508.37918"
       x2="234.4704"
       y2="613.44269"
       id="linearGradient3951"
       xlink:href="#linearGradient3953"
       gradientUnits="userSpaceOnUse"
       gradientTransform="matrix(-0.99807102,0.02017429,0.02993542,1.0035648,790.7124,49.797312)" />
    <linearGradient
       x1="179.50415"
       y1="381.55859"
       x2="354.60654"
       y2="164.66835"
       id="linearGradient3961"
       xlink:href="#linearGradient3963"
       gradientUnits="userSpaceOnUse"
       gradientTransform="matrix(1.1678571,0,0,1.3587786,-135.93891,-70.455576)" />
    <clipPath
       id="content">
      <circle
         cx="370"
         cy="480"
         r="300"
         transform="translate(-38,-148)"
         id="circle3017" />
    </clipPath>
    <filter
       x="0"
       y="0"
       width="1"
       height="1"
       color-interpolation-filters="sRGB"
       id="discBackground">
      <feImage
         id="feImage4427"
         preserveAspectRatio="defer"
         width="100%"
         xlink:href="https://pbs.twimg.com/profile_banners/1254261/1388759665/1500x500" />
    </filter>
    <pattern id="image" x="-32" y="-32" patternUnits="userSpaceOnUse" height="64" width="64">
      <image x="0" y="0" preserveAspectRatio="defer" xlink:href="https://pbs.twimg.com/profile_banners/1254261/1388759665/1500x500"/>
    </pattern>
    <clipPath id="macaron-container">
      <circle
          cx="332"
          cy="332"
          r="124" />
    </clipPath>
    <linearGradient
       x1="179.50415"
       y1="381.55859"
       x2="354.60654"
       y2="164.66835"
       id="linearGradient3353"
       xlink:href="#linearGradient3963"
       gradientUnits="userSpaceOnUse"
       gradientTransform="matrix(1.1678571,0,0,1.3587786,-173.93891,-218.45558)" />
    <linearGradient
       x1="173.08939"
       y1="508.37918"
       x2="234.4704"
       y2="613.44269"
       id="linearGradient3356"
       xlink:href="#linearGradient3953"
       gradientUnits="userSpaceOnUse"
       gradientTransform="matrix(-0.99807102,0.02017429,0.02993542,1.0035648,752.7124,-98.202688)" />
  </defs>
  <g
     transform="translate(-32,-32)"
     clip-path="url(#content)"
     id="g3361">
    <circle
       cx="332"
       cy="332"
       r="300"
       id="path2985"
       style="fill:#333333;stroke:#dbdbdb;stroke-width:2;stroke-miterlimit:4;stroke-opacity:1;stroke-dasharray:none" />
    <path
       d="m 330.57992,332.17836 c 20.39916,19.79638 -5.99814,35.53385 -23.91248,26.28519 -21.69704,-11.20157 -24.15023,-41.38886 -11.33801,-60.49406 17.04423,-25.41582 52.37246,-28.04659 75.32532,-9.84236 27.57126,21.86714 30.12026,64.11905 8.75097,91.43425 -24.48996,31.3042 -70.32739,33.95528 -99.77537,8.62199 -32.82866,-28.24158 -35.42903,-80.15682 -8.12658,-113.3355 29.88589,-36.31815 84.19262,-39.0491 118.75505,-8.27 37.34451,33.25663 40.03865,93.20554 7.95018,131.23117 -34.33608,40.68909 -95.86731,43.5272 -134.79031,8.19458 -41.33617,-37.5232 -44.13997,-104.46366 -7.94589,-146.71302 38.20695,-44.59897 106.1254,-47.55377 148.91101,-8.23927 44.94292,41.29678 47.86137,114.4971 8.02306,160.53604 -41.67551,48.16208 -115.37206,51.23589 -161.65913,8.34448 -48.25378,-44.71383 -51.28732,-123.62588 -8.14323,-173.12929 44.84361,-51.45341 123.85064,-54.64546 173.3616,-8.48277 51.32874,47.85755 54.47583,132.05164 8.28748,184.76424 -47.77624,54.5248 -131.7206,57.83296 -184.23351,8.63992 -54.21026,-50.78309 -57.4685,-139.91106 -8.44563,-195.62552 50.518,-57.41366 139.09322,-60.83523 194.42536,-8.80793 56.92954,53.52929 60.2962,147.30176 8.61171,205.84538 -53.10092,60.14801 -146.0496,63.68011 -204.04719,8.98207 -59.51032,-56.12471 -62.98257,-154.29637 -8.78213,-215.52241 55.54905,-62.74944 152.65113,-66.38912 213.18241,-9.15936 61.97112,58.59106 65.54613,160.95056 9.05256,225.70591 -60.24003,61.94956 -161.57041,62.15507 -222.46851,1.88896 -61.47493,-60.83694 -61.68044,-163.00127 -0.91541,-224.39831 61.33588,-61.97383 164.33415,-62.17934 226.23013,-0.9154 62.47275,61.83483 62.67826,165.66704 0.9154,228.06194 -62.33377,62.97168 -166.99993,63.17719 -229.89378,0.91541 -63.47058,-62.83271 -63.67608,-168.33281 -0.91539,-231.7256 63.33165,-63.96949 169.6657,-64.175 233.55742,-0.91539 64.46841,63.83059 64.67391,170.99859 0.91539,235.38925 -64.32953,64.96732 -172.33147,65.17282 -237.22107,0.91538 -65.46624,-64.82847 -65.67174,-173.66436 -0.91538,-239.05289 65.32741,-65.96516 174.99725,-66.17066 240.88472,-0.91538 66.46407,65.82634 66.66956,176.33013 0.91537,242.71654 -66.32528,66.96299 -177.66302,67.16848 -244.54836,0.91537 -67.46191,-66.82422 -67.6674,-178.99591 -0.91537,-246.38019 67.32316,-67.96081 180.3288,-68.1663 248.21201,-0.91536 68.45973,67.8221 68.66522,181.66168 0.91536,250.04383 -68.32104,68.95865 -182.99457,69.16414 -251.87566,0.91536 -69.45756,-68.81998 -69.66305,-184.32746 -0.91535,-253.70748 69.31891,-69.95648 185.66035,-70.16197 255.5393,-0.91534 70.4554,69.81784 70.66088,186.99323 0.91534,257.37112 -70.31678,70.95431 -188.32612,71.15979 -259.20294,0.91533 -71.45323,-70.81572 -71.65871,-189.659 -0.91533,-261.03477 71.31466,-71.95214 190.99189,-72.15762 262.86659,-0.91532 72.45106,71.81359 72.65654,192.32478 0.91532,264.69841 -72.31253,72.94998 -193.65767,73.15546 -266.53024,0.91532 -73.4489,-72.81147 -73.65437,-194.99056 -0.91531,-268.36206 73.31041,-73.94782 196.32345,-74.15328 270.19388,-0.91531 74.44674,73.80934 74.6522,197.65634 0.91531,272.02571 -74.30828,74.94565 -198.98923,75.15111 -273.85753,0.9153 -75.44457,-74.80722 -75.65003,-200.32212 -0.9153,-275.68935 75.30615,-75.94349 201.65501,-76.14895 277.52118,-0.9153 76.4424,75.80509 76.64786,202.9879 0.91529,279.353 -76.30403,76.94132 -204.32079,77.14678 -281.18482,0.91529 -77.44025,-76.80296 -77.6457,-205.65368 -0.91529,-283.01665 77.3019,-77.93916 206.98657,-78.14461 284.84847,-0.91528 78.43808,77.80083 78.64353,208.31946 0.91527,286.68029 -78.29976,78.937 -209.65234,79.14245 -288.51211,0.91527 -79.43591,-78.7987 -79.64136,-210.98523 -0.91526,-290.34393 79.29763,-79.93483 212.31812,-80.14028 292.17575,-0.91526 80.43376,79.79657 80.6392,213.65101 0.91526,294.00758 -80.29551,80.93267 -214.9839,81.13811 -295.8394,0.91525 -81.43159,-80.79444 -81.63703,-216.31679 -0.91525,-297.67123 81.29338,-81.9305 217.64968,-82.13594 299.50305,-0.91524 82.42942,81.79231 82.63486,218.98257 0.91524,301.33487 -82.29125,82.92835 -220.31547,83.13377 -303.1667,0.91524 -83.427262,-82.79018 -83.632702,-221.64836 -0.91523,-304.99852 83.28912,-83.926182 222.98125,-84.131622 306.83034,-0.91523 84.42511,83.78805 84.63054,224.31414 0.91523,308.66217 -84.28699,84.92402 -225.64703,85.12945 -310.49399,0.91522 C 92.161868,404.20879 91.956438,262.01479 176.66959,176.6689 261.95445,90.747038 404.9824,90.541608 490.82723,175.75368 c 86.42078,85.78379 86.6262,229.6457 0.9152,315.98946 -86.28272,86.9197 -230.97859,87.12512 -317.82127,0.9152 -87.418622,-86.78165 -87.624042,-232.31148 -0.9152,-319.6531 87.28058,-87.917542 233.64437,-88.122962 321.48492,-0.91519 88.41646,87.77952 88.62188,234.97726 0.91519,323.31674 -88.27845,88.91538 -236.31015,89.1208 -325.14857,0.91519 -89.414302,-88.77739 -89.619712,-237.64305 -0.91518,-326.98039 89.27632,-89.913222 238.97594,-90.118632 328.81221,-0.91518 90.41214,89.77526 90.61755,240.30883 0.91518,330.64404 -90.27419,90.91106 -241.64172,91.11646 -332.47586,0.91517 C 75.183868,409.21249 74.978458,257.011 165.67868,165.67794 c 91.27206,-91.908912 244.30751,-92.114312 336.13951,-0.91518 92.40782,91.771 92.61322,245.64041 0.91516,337.97134 -92.26993,92.90674 -246.97329,93.11214 -339.80316,0.91516 -93.405662,-92.76886 -93.611062,-248.30618 -0.91515,-341.63498 93.26779,-93.904582 249.63908,-94.109982 343.4668,-0.91515 94.4035,93.76673 94.6089,250.97197 0.91515,345.29863 -94.26566,94.90242 -252.30486,95.10781 -347.13045,0.91514 C 63.865198,412.5483 63.659808,253.67514 158.3514,158.35063 253.61493,62.450358 413.32205,62.244968 509.1455,157.4355 c 96.39918,95.76245 96.60457,256.30353 0.91512,352.62591 -96.26139,96.89811 -257.63642,97.10349 -354.45773,0.91512 -97.397031,-96.76032 -97.602414,-258.96932 -0.91512,-356.28956 97.25925,-97.895952 260.30221,-98.101332 358.12138,-0.91511 98.39487,97.75819 98.60025,261.6351 0.91511,359.9532 -98.25712,98.89379 -262.968,99.09917 -361.78503,0.91511 C 52.546523,415.88411 52.341147,250.33928 151.02413,151.02332 250.27912,51.131688 416.65791,50.926308 516.4728,150.10822 616.86336,249.86214 617.06873,417.0749 517.3879,517.38872 417.13505,618.27819 249.08833,618.48356 148.27558,518.30381 46.887176,417.55202 46.681809,248.67135 147.36049,147.35967 248.61121,45.472348 418.32585,45.266978 520.13646,146.44458 622.5227,248.19423 622.72806,418.74283 521.05154,521.05237 418.80296,623.93753 247.4204,624.14289 144.61192,521.96745 41.22784,419.21993 41.02248,247.00341 143.69685,143.69601 246.9433,39.813008 419.99378,39.607648 523.80011,142.78094 628.18204,246.52632 628.38739,420.41076 524.71517,524.71603 420.47086,629.59687 245.75246,629.80223 140.94827,525.63108 35.568504,420.88784 35.363151,245.33548 140.03322,140.03236 245.27539,34.153668 421.66171,33.948318 527.46377,139.11731 633.84138,244.85841 634.04673,422.0787 528.37881,528.37968 422.13877,635.25621 244.08453,635.46156 137.28462,529.29472 29.909158,422.55575 29.703812,243.66754 136.36958,136.3687 243.60748,28.494328 423.32965,28.288978 531.12742,135.45367 639.50072,243.1905 639.70606,423.74663 532.04245,532.04333 423.80668,640.91555 242.41659,641.12089 133.62096,532.95836 24.249821,424.22366 24.044484,241.99961 132.70594,132.70505 241.93957,22.834988 424.99758,22.629648 534.79107,131.79003 645.16006,241.52259 645.36539,425.41457 535.70609,535.70699 425.47459,646.57489 240.74866,646.78023 129.95731,536.622 18.590475,425.89157 18.385145,240.33167 129.0423,129.0414 240.27166,17.175638 426.66552,16.970308 538.45473,128.12639"
       id="spirale"
       style="fill:none;stroke:#555555;stroke-width:1;stroke-linecap:butt;stroke-linejoin:miter;stroke-opacity:1">

      <animateTransform
          attributeType="xml"
          attributeName="transform"
          type="rotate"
          from="0 332 332"
          to="360 332 332"
          dur="8s"
          repeatCount="indefinite"/>
    </path>
    <path
       d="m 336.14144,330.35701 c 146.47019,50.84333 431.62671,-10.93529 437.93513,133.34922 L 589.99428,681.32669 C 482.65824,557.31284 427.94971,446.98882 336.14144,330.35701 z"
       id="path3123"
       style="fill:url(#linearGradient3356);fill-opacity:1;stroke:none" />
    <path
       d="M 320.59299,334.07971 239.44358,-104.12712 -88.104966,252.17568 z"
       id="path3923"
       style="fill:url(#linearGradient3353);fill-opacity:1;stroke:none" />
    <circle
       cx="332"
       cy="332"
       r="128"
       id="macaron"
       style="fill:#ffffff;fill-opacity:1;stroke:#000000;stroke-width:10;stroke-linejoin:miter;stroke-miterlimit:4;stroke-opacity:0.44700461;stroke-dasharray:none;marker-start:none;opacity:1;" />
    <image
        x="208"
        y="208"
        width="248"
        height="248"
        preserveAspectRatio="xMidYMid slice"
        clip-path="url(#macaron-container)"
        xlink:href="./logo.svg" >
      <animateTransform
          attributeType="xml"
          attributeName="transform"
          type="rotate"
          from="0 332 332"
          to="360 332 332"
          dur="8s"
          repeatCount="indefinite"/>
    </image>
  </g>
</svg>
