<?xml version="1.0" encoding="UTF-8" standalone="no"?>
<!-- Generator: Adobe Illustrator 15.1.0, SVG Export Plug-In . SVG Version: 6.00 Build 0)  -->

<svg
   xmlns:dc="http://purl.org/dc/elements/1.1/"
   xmlns:cc="http://creativecommons.org/ns#"
   xmlns:rdf="http://www.w3.org/1999/02/22-rdf-syntax-ns#"
   xmlns:svg="http://www.w3.org/2000/svg"
   xmlns="http://www.w3.org/2000/svg"
   xmlns:sodipodi="http://sodipodi.sourceforge.net/DTD/sodipodi-0.dtd"
   xmlns:inkscape="http://www.inkscape.org/namespaces/inkscape"
   version="1.1"
   x="0px"
   y="0px"
   width="213.21875"
   height="244.6875"
   viewBox="0 0 213.21875 244.6875"
   enable-background="new 0 0 1920 447.154"
   xml:space="preserve"
   id="svg3572"
   inkscape:version="0.48.5 r10040"
   sodipodi:docname="logo.svg"><metadata
     id="metadata4119"><rdf:RDF><cc:Work
         rdf:about=""><dc:format>image/svg+xml</dc:format><dc:type
           rdf:resource="http://purl.org/dc/dcmitype/StillImage" /></cc:Work></rdf:RDF></metadata><defs
     id="defs4117" /><sodipodi:namedview
     pagecolor="#ffffff"
     bordercolor="#666666"
     borderopacity="1"
     objecttolerance="10"
     gridtolerance="10"
     guidetolerance="10"
     inkscape:pageopacity="0"
     inkscape:pageshadow="2"
     inkscape:window-width="1360"
     inkscape:window-height="741"
     id="namedview4115"
     showgrid="false"
     inkscape:zoom="0.42942006"
     inkscape:cx="896.25987"
     inkscape:cy="292.34258"
     inkscape:window-x="0"
     inkscape:window-y="27"
     inkscape:window-maximized="1"
     inkscape:current-layer="svg3572"
     fit-margin-top="0"
     fit-margin-left="0"
     fit-margin-right="0"
     fit-margin-bottom="0" /><g
     id="g4230"
     transform="translate(-1321.3438,-48.875)"><polygon
       stroke-miterlimit="10"
       points="1322.491,232.105 1427.943,292.989 1533.396,232.105 1533.396,110.338 1427.943,49.456 1322.491,110.339 "
       id="polygon3947"
       style="fill:none;stroke:#808080;stroke-linecap:round;stroke-miterlimit:10" /><path
       d="m 1427.943,171.222 52.727,30.442 m -52.727,-30.442 -52.726,30.442 m 105.453,0 -23.0839,60.88101 m 23.0839,-60.88101 41.1969,-50.448 m -146.6499,50.448 -41.184,-50.43201 m 41.184,50.43201 23.09,60.901 m 29.636,-152.226 64.2681,-10.451 m -64.2681,10.451 -64.287,-10.453998 m 64.287,71.336998 0,-60.883 m -52.755,152.172 105.458,0.059 52.754,-91.315 -52.735,-91.371 -105.477,0.031 -52.702,91.283 z"
       style="fill:none;stroke:#000000;stroke-width:2;stroke-linecap:round;stroke-miterlimit:10"
       id="line4103"
       inkscape:connector-curvature="0" /><path
       transform="translate(-1.7821042e-5,0)"
       inkscape:connector-curvature="0"
       id="path4228"
       d="m 1355.8969,175.61987 c -10.5643,-12.93484 -19.3311,-23.86376 -19.4817,-24.2865 -0.1507,-0.42275 6.0996,-11.81306 13.8895,-25.31181 l 14.1633,-24.54319 21.9253,3.57896 c 12.0589,1.96843 26.0007,4.21916 30.9819,5.00163 l 9.0566,1.42268 0.2161,29.32067 0.2161,29.32067 -25.1111,14.50738 c -13.8111,7.97906 -25.457,14.50738 -25.8797,14.50738 -0.4227,0 -9.412,-10.58304 -19.9763,-23.51787 z"
       style="fill:#f4d7d7;stroke:none" /></g></svg>